<svg width="201" height="95" viewBox="0 0 201 95" fill="none" xmlns="http://www.w3.org/2000/svg">
<path d="M178.222 25.8952L196.398 91.5L115.382 91.5L168.134 73.755C170.096 73.0952 171.52 71.3906 171.822 69.3434L178.222 25.8952Z" fill="white" stroke="#292929" stroke-width="7"/>
<path d="M22.7785 69.1048L4.60159 3.5H85.6177L32.8657 21.245C30.9045 21.9048 29.4795 23.6094 29.178 25.6566L22.7785 69.1048Z" fill="white" stroke="#292929" stroke-width="7"/>
<path d="M55.36 48.12C54.3067 48.12 53.3333 47.9467 52.44 47.6C51.5467 47.24 50.7733 46.74 50.12 46.1C49.4667 45.46 48.9533 44.7067 48.58 43.84C48.22 42.9733 48.04 42.0267 48.04 41C48.04 39.9733 48.22 39.0267 48.58 38.16C48.9533 37.2933 49.4667 36.54 50.12 35.9C50.7867 35.26 51.5667 34.7667 52.46 34.42C53.3533 34.06 54.3267 33.88 55.38 33.88C56.3933 33.88 57.3467 34.0533 58.24 34.4C59.1333 34.7333 59.8867 35.24 60.5 35.92L59.56 36.86C58.9867 36.2733 58.3533 35.8533 57.66 35.6C56.9667 35.3333 56.22 35.2 55.42 35.2C54.58 35.2 53.8 35.3467 53.08 35.64C52.36 35.92 51.7333 36.3267 51.2 36.86C50.6667 37.38 50.2467 37.9933 49.94 38.7C49.6467 39.3933 49.5 40.16 49.5 41C49.5 41.84 49.6467 42.6133 49.94 43.32C50.2467 44.0133 50.6667 44.6267 51.2 45.16C51.7333 45.68 52.36 46.0867 53.08 46.38C53.8 46.66 54.58 46.8 55.42 46.8C56.22 46.8 56.9667 46.6667 57.66 46.4C58.3533 46.1333 58.9867 45.7067 59.56 45.12L60.5 46.06C59.8867 46.74 59.1333 47.2533 58.24 47.6C57.3467 47.9467 56.3867 48.12 55.36 48.12ZM67.1663 48.1C66.1529 48.1 65.2396 47.8733 64.4263 47.42C63.6263 46.9533 62.9929 46.32 62.5263 45.52C62.0596 44.7067 61.8263 43.78 61.8263 42.74C61.8263 41.6867 62.0596 40.76 62.5263 39.96C62.9929 39.16 63.6263 38.5333 64.4263 38.08C65.2263 37.6267 66.1396 37.4 67.1663 37.4C68.2063 37.4 69.1263 37.6267 69.9263 38.08C70.7396 38.5333 71.3729 39.16 71.8263 39.96C72.2929 40.76 72.5263 41.6867 72.5263 42.74C72.5263 43.78 72.2929 44.7067 71.8263 45.52C71.3729 46.32 70.7396 46.9533 69.9263 47.42C69.1129 47.8733 68.1929 48.1 67.1663 48.1ZM67.1663 46.84C67.9263 46.84 68.5996 46.6733 69.1863 46.34C69.7729 45.9933 70.2329 45.5133 70.5663 44.9C70.9129 44.2733 71.0863 43.5533 71.0863 42.74C71.0863 41.9133 70.9129 41.1933 70.5663 40.58C70.2329 39.9667 69.7729 39.4933 69.1863 39.16C68.5996 38.8133 67.9329 38.64 67.1863 38.64C66.4396 38.64 65.7729 38.8133 65.1863 39.16C64.5996 39.4933 64.1329 39.9667 63.7863 40.58C63.4396 41.1933 63.2663 41.9133 63.2663 42.74C63.2663 43.5533 63.4396 44.2733 63.7863 44.9C64.1329 45.5133 64.5996 45.9933 65.1863 46.34C65.7729 46.6733 66.4329 46.84 67.1663 46.84ZM79.7053 48.1C78.692 48.1 77.7786 47.8733 76.9653 47.42C76.1653 46.9533 75.532 46.32 75.0653 45.52C74.5986 44.7067 74.3653 43.78 74.3653 42.74C74.3653 41.6867 74.5986 40.76 75.0653 39.96C75.532 39.16 76.1653 38.5333 76.9653 38.08C77.7653 37.6267 78.6786 37.4 79.7053 37.4C80.7453 37.4 81.6653 37.6267 82.4653 38.08C83.2786 38.5333 83.912 39.16 84.3653 39.96C84.832 40.76 85.0653 41.6867 85.0653 42.74C85.0653 43.78 84.832 44.7067 84.3653 45.52C83.912 46.32 83.2786 46.9533 82.4653 47.42C81.652 47.8733 80.732 48.1 79.7053 48.1ZM79.7053 46.84C80.4653 46.84 81.1386 46.6733 81.7253 46.34C82.312 45.9933 82.772 45.5133 83.1053 44.9C83.452 44.2733 83.6253 43.5533 83.6253 42.74C83.6253 41.9133 83.452 41.1933 83.1053 40.58C82.772 39.9667 82.312 39.4933 81.7253 39.16C81.1386 38.8133 80.472 38.64 79.7253 38.64C78.9786 38.64 78.312 38.8133 77.7253 39.16C77.1386 39.4933 76.672 39.9667 76.3253 40.58C75.9786 41.1933 75.8053 41.9133 75.8053 42.74C75.8053 43.5533 75.9786 44.2733 76.3253 44.9C76.672 45.5133 77.1386 45.9933 77.7253 46.34C78.312 46.6733 78.972 46.84 79.7053 46.84ZM89.0844 45.28L89.1244 43.46L95.6644 37.5H97.4044L92.7844 41.92L91.9844 42.6L89.0844 45.28ZM87.9644 48V33.16H89.3844V48H87.9644ZM96.1044 48L91.7244 42.54L92.6444 41.44L97.8444 48H96.1044ZM100.276 48V34H105.516C106.703 34 107.723 34.1933 108.576 34.58C109.429 34.9533 110.083 35.5 110.536 36.22C111.003 36.9267 111.236 37.7867 111.236 38.8C111.236 39.7867 111.003 40.64 110.536 41.36C110.083 42.0667 109.429 42.6133 108.576 43C107.723 43.3733 106.703 43.56 105.516 43.56H101.096L101.756 42.88V48H100.276ZM109.836 48L106.236 42.92H107.836L111.456 48H109.836ZM101.756 43L101.096 42.3H105.476C106.876 42.3 107.936 41.9933 108.656 41.38C109.389 40.7667 109.756 39.9067 109.756 38.8C109.756 37.68 109.389 36.8133 108.656 36.2C107.936 35.5867 106.876 35.28 105.476 35.28H101.096L101.756 34.58V43ZM118.769 48.1C117.876 48.1 117.096 47.9333 116.429 47.6C115.763 47.2667 115.243 46.7667 114.869 46.1C114.509 45.4333 114.329 44.6 114.329 43.6V37.5H115.749V43.44C115.749 44.56 116.023 45.4067 116.569 45.98C117.129 46.54 117.909 46.82 118.909 46.82C119.643 46.82 120.276 46.6733 120.809 46.38C121.356 46.0733 121.769 45.6333 122.049 45.06C122.343 44.4867 122.489 43.8 122.489 43V37.5H123.909V48H122.549V45.12L122.769 45.64C122.436 46.4133 121.916 47.02 121.209 47.46C120.516 47.8867 119.703 48.1 118.769 48.1ZM127.867 48V33.16H129.287V48H127.867ZM137.698 48.1C136.604 48.1 135.644 47.8733 134.818 47.42C133.991 46.9533 133.344 46.32 132.878 45.52C132.411 44.7067 132.178 43.78 132.178 42.74C132.178 41.7 132.398 40.78 132.838 39.98C133.291 39.18 133.904 38.5533 134.678 38.1C135.464 37.6333 136.344 37.4 137.318 37.4C138.304 37.4 139.178 37.6267 139.938 38.08C140.711 38.52 141.318 39.1467 141.758 39.96C142.198 40.76 142.418 41.6867 142.418 42.74C142.418 42.8067 142.411 42.88 142.398 42.96C142.398 43.0267 142.398 43.1 142.398 43.18H133.258V42.12H141.638L141.078 42.54C141.078 41.78 140.911 41.1067 140.578 40.52C140.258 39.92 139.818 39.4533 139.258 39.12C138.698 38.7867 138.051 38.62 137.318 38.62C136.598 38.62 135.951 38.7867 135.378 39.12C134.804 39.4533 134.358 39.92 134.038 40.52C133.718 41.12 133.558 41.8067 133.558 42.58V42.8C133.558 43.6 133.731 44.3067 134.078 44.92C134.438 45.52 134.931 45.9933 135.558 46.34C136.198 46.6733 136.924 46.84 137.738 46.84C138.378 46.84 138.971 46.7267 139.518 46.5C140.078 46.2733 140.558 45.9267 140.958 45.46L141.758 46.38C141.291 46.94 140.704 47.3667 139.998 47.66C139.304 47.9533 138.538 48.1 137.698 48.1ZM148.128 48.1C147.261 48.1 146.441 47.98 145.668 47.74C144.895 47.4867 144.288 47.1733 143.848 46.8L144.488 45.68C144.915 46 145.461 46.28 146.128 46.52C146.795 46.7467 147.495 46.86 148.228 46.86C149.228 46.86 149.948 46.7067 150.388 46.4C150.828 46.08 151.048 45.66 151.048 45.14C151.048 44.7533 150.921 44.4533 150.668 44.24C150.428 44.0133 150.108 43.8467 149.708 43.74C149.308 43.62 148.861 43.52 148.368 43.44C147.875 43.36 147.381 43.2667 146.888 43.16C146.408 43.0533 145.968 42.9 145.568 42.7C145.168 42.4867 144.841 42.2 144.588 41.84C144.348 41.48 144.228 41 144.228 40.4C144.228 39.8267 144.388 39.3133 144.708 38.86C145.028 38.4067 145.495 38.0533 146.108 37.8C146.735 37.5333 147.495 37.4 148.388 37.4C149.068 37.4 149.748 37.4933 150.428 37.68C151.108 37.8533 151.668 38.0867 152.108 38.38L151.488 39.52C151.021 39.2 150.521 38.9733 149.988 38.84C149.455 38.6933 148.921 38.62 148.388 38.62C147.441 38.62 146.741 38.7867 146.288 39.12C145.848 39.44 145.628 39.8533 145.628 40.36C145.628 40.76 145.748 41.0733 145.988 41.3C146.241 41.5267 146.568 41.7067 146.968 41.84C147.381 41.96 147.828 42.06 148.308 42.14C148.801 42.22 149.288 42.32 149.768 42.44C150.261 42.5467 150.708 42.7 151.108 42.9C151.521 43.0867 151.848 43.36 152.088 43.72C152.341 44.0667 152.468 44.5267 152.468 45.1C152.468 45.7133 152.295 46.2467 151.948 46.7C151.615 47.14 151.121 47.4867 150.468 47.74C149.828 47.98 149.048 48.1 148.128 48.1Z" fill="black"/>
<path d="M47.0003 51.0041L59.6353 53.3958C68.7335 55.1181 78.0742 55.1174 87.1722 53.3939L99.8073 51.0002L112.5 48.501L118.191 47.8788C123.522 47.296 128.9 47.2943 134.231 47.8738L140 48.501L152.614 50.9964" stroke="#636363" stroke-width="1.5"/>
</svg>
